<mxfile host="app.diagrams.net" modified="2020-10-15T20:14:13.051Z" agent="5.0 (Macintosh; Intel Mac OS X 10_14_6) AppleWebKit/537.36 (KHTML, like Gecko) Chrome/86.0.4240.80 Safari/537.36" etag="Ih_rNSRkSChuhVb5q221" version="13.8.0" type="github">
  <diagram id="XRLAiwTjWuj6m0lgKd-L" name="Page-1">
    <mxGraphModel dx="2253" dy="736" grid="0" gridSize="10" guides="1" tooltips="1" connect="1" arrows="1" fold="1" page="1" pageScale="1" pageWidth="827" pageHeight="1169" math="0" shadow="0">
      <root>
        <mxCell id="0" />
        <mxCell id="1" parent="0" />
        <mxCell id="PljOsR7fZy3H20qurfGT-23" value="" style="group" parent="1" vertex="1" connectable="0">
          <mxGeometry x="318" y="135" width="242" height="545" as="geometry" />
        </mxCell>
        <mxCell id="PljOsR7fZy3H20qurfGT-12" value="" style="rounded=0;whiteSpace=wrap;html=1;fillColor=#dae8fc;strokeColor=#6c8ebf;" parent="PljOsR7fZy3H20qurfGT-23" vertex="1">
          <mxGeometry y="453.1460674157304" width="241.8472543656638" height="91.85393258426967" as="geometry" />
        </mxCell>
        <mxCell id="PljOsR7fZy3H20qurfGT-13" value="Top学习资源推荐" style="rounded=0;whiteSpace=wrap;html=1;fillColor=#dae8fc;strokeColor=#6c8ebf;" parent="PljOsR7fZy3H20qurfGT-23" vertex="1">
          <mxGeometry x="0.15" width="241.85" height="40" as="geometry" />
        </mxCell>
        <mxCell id="PljOsR7fZy3H20qurfGT-14" value="" style="rounded=0;whiteSpace=wrap;html=1;" parent="PljOsR7fZy3H20qurfGT-23" vertex="1">
          <mxGeometry y="30.61797752808989" width="241.8472543656638" height="489.88764044943827" as="geometry" />
        </mxCell>
        <mxCell id="PljOsR7fZy3H20qurfGT-15" value="&lt;h1&gt;&lt;font style=&quot;font-size: 11px&quot;&gt;为什么给小明推荐这些练习？&amp;nbsp;&lt;/font&gt;&lt;/h1&gt;&lt;div&gt;&lt;font&gt;&lt;span style=&quot;font-size: 11px&quot;&gt;小明上周在亿以上的大数问题中错误率为50%。这个知识点小明可能没有理解，我们推荐用观看视频和练习来巩固。&lt;/span&gt;&lt;br&gt;&lt;/font&gt;&lt;/div&gt;" style="text;html=1;strokeColor=none;fillColor=none;spacing=5;spacingTop=-20;whiteSpace=wrap;overflow=hidden;rounded=0;" parent="PljOsR7fZy3H20qurfGT-23" vertex="1">
          <mxGeometry x="14.001683147485798" y="42.86516853932584" width="216.38964864296233" height="134.71910112359552" as="geometry" />
        </mxCell>
        <mxCell id="PljOsR7fZy3H20qurfGT-16" value="" style="rounded=1;whiteSpace=wrap;html=1;strokeColor=#CCCCCC;" parent="PljOsR7fZy3H20qurfGT-23" vertex="1">
          <mxGeometry x="217.6625289290974" y="177.58426966292137" width="12.728802861350726" height="244.94382022471913" as="geometry" />
        </mxCell>
        <mxCell id="PljOsR7fZy3H20qurfGT-17" value="学情报告链接" style="rounded=1;whiteSpace=wrap;html=1;fillColor=#f8cecc;strokeColor=#b85450;" parent="PljOsR7fZy3H20qurfGT-23" vertex="1">
          <mxGeometry x="42.15779507679361" y="434.7752808988764" width="152.7456343362087" height="61.23595505617978" as="geometry" />
        </mxCell>
        <mxCell id="PljOsR7fZy3H20qurfGT-18" value="讲练测推荐模块1" style="rounded=0;whiteSpace=wrap;html=1;fillColor=#fff2cc;strokeColor=#d6b656;" parent="PljOsR7fZy3H20qurfGT-23" vertex="1">
          <mxGeometry x="29.428992215442882" y="177.58426966292137" width="178.20324005891015" height="73.48314606741573" as="geometry" />
        </mxCell>
        <mxCell id="PljOsR7fZy3H20qurfGT-19" value="讲练测推荐模块2" style="rounded=0;whiteSpace=wrap;html=1;fillColor=#fff2cc;strokeColor=#d6b656;" parent="PljOsR7fZy3H20qurfGT-23" vertex="1">
          <mxGeometry x="29.428992215442882" y="263.3146067415731" width="178.20324005891015" height="73.48314606741573" as="geometry" />
        </mxCell>
        <mxCell id="PljOsR7fZy3H20qurfGT-20" value="讲练测推荐模块3" style="rounded=0;whiteSpace=wrap;html=1;fillColor=#fff2cc;strokeColor=#d6b656;" parent="PljOsR7fZy3H20qurfGT-23" vertex="1">
          <mxGeometry x="29.428992215442882" y="349.0449438202248" width="178.20324005891015" height="73.48314606741573" as="geometry" />
        </mxCell>
        <mxCell id="PljOsR7fZy3H20qurfGT-21" value="" style="rounded=1;whiteSpace=wrap;html=1;fillColor=#f5f5f5;fontColor=#333333;strokeColor=none;" parent="PljOsR7fZy3H20qurfGT-23" vertex="1">
          <mxGeometry x="217.6625289290974" y="361.2921348314607" width="12.728802861350726" height="61.23595505617978" as="geometry" />
        </mxCell>
        <mxCell id="PljOsR7fZy3H20qurfGT-2" value="" style="rounded=0;whiteSpace=wrap;html=1;strokeColor=#6c8ebf;fillColor=#368DFF;" parent="1" vertex="1">
          <mxGeometry x="-288" y="677" width="349.78" height="30" as="geometry" />
        </mxCell>
        <mxCell id="PljOsR7fZy3H20qurfGT-1" value="&lt;font color=&quot;#fdfff7&quot;&gt;Top learning recommendations&lt;/font&gt;" style="rounded=0;whiteSpace=wrap;html=1;strokeColor=#6c8ebf;fillColor=#368DFF;" parent="1" vertex="1">
          <mxGeometry x="-287.78461538461534" y="128" width="349.7846153846153" height="31.636363636363637" as="geometry" />
        </mxCell>
        <mxCell id="PljOsR7fZy3H20qurfGT-3" value="" style="rounded=0;whiteSpace=wrap;html=1;" parent="1" vertex="1">
          <mxGeometry x="-288" y="155" width="349.78" height="394" as="geometry" />
        </mxCell>
        <mxCell id="PljOsR7fZy3H20qurfGT-6" value="&lt;p&gt;&lt;span style=&quot;font-size: 11px&quot;&gt;&lt;b&gt;Why we recommend these exercises for Ming?&lt;/b&gt;&lt;/span&gt;&lt;/p&gt;&lt;p&gt;&lt;font&gt;&lt;font style=&quot;font-size: 10px&quot;&gt;Ming missed 50% of his questions in &quot;numbers greater than 100 million&quot; in last week&#39;s exam. He may have difficulty understanding the concept. These videos-exercise modules are designed to help him reinforce these concepts.&amp;nbsp;&lt;/font&gt;&lt;/font&gt;&lt;/p&gt;" style="text;html=1;strokeColor=none;fillColor=none;spacing=5;spacingTop=-20;whiteSpace=wrap;overflow=hidden;rounded=0;" parent="1" vertex="1">
          <mxGeometry x="-267.7538461538462" y="173.61963636363635" width="312.9538461538461" height="133.6530909090909" as="geometry" />
        </mxCell>
        <mxCell id="PljOsR7fZy3H20qurfGT-10" value="" style="rounded=1;whiteSpace=wrap;html=1;strokeColor=#CCCCCC;" parent="1" vertex="1">
          <mxGeometry x="14.02117820323997" y="277.9987640449438" width="18.409425625920466" height="260.67415730337075" as="geometry" />
        </mxCell>
        <mxCell id="PljOsR7fZy3H20qurfGT-5" value="learn-practice-assess module 1" style="rounded=0;whiteSpace=wrap;html=1;fillColor=#fff2cc;strokeColor=#d6b656;" parent="1" vertex="1">
          <mxGeometry x="-258.2174079528719" y="277.9987640449438" width="257.7319587628865" height="78.20224719101124" as="geometry" />
        </mxCell>
        <mxCell id="PljOsR7fZy3H20qurfGT-7" value="learn-practice-assess module 2" style="rounded=0;whiteSpace=wrap;html=1;fillColor=#fff2cc;strokeColor=#d6b656;" parent="1" vertex="1">
          <mxGeometry x="-258.2174079528719" y="369.2347191011236" width="257.7319587628865" height="78.20224719101124" as="geometry" />
        </mxCell>
        <mxCell id="PljOsR7fZy3H20qurfGT-8" value="learn-practice-assess module 3" style="rounded=0;whiteSpace=wrap;html=1;fillColor=#fff2cc;strokeColor=#d6b656;" parent="1" vertex="1">
          <mxGeometry x="-258.2174079528719" y="460.4706741573034" width="257.7319587628865" height="78.20224719101124" as="geometry" />
        </mxCell>
        <mxCell id="PljOsR7fZy3H20qurfGT-9" value="" style="rounded=1;whiteSpace=wrap;html=1;fillColor=#f5f5f5;fontColor=#333333;strokeColor=none;" parent="1" vertex="1">
          <mxGeometry x="14.02117820323997" y="473.5043820224719" width="18.409425625920466" height="65.16853932584269" as="geometry" />
        </mxCell>
        <mxCell id="3JirW67J5OosZr8UNJjr-26" value="" style="rounded=0;whiteSpace=wrap;html=1;fontSize=5;align=left;fillColor=#D4E1F5;" vertex="1" parent="1">
          <mxGeometry x="-288" y="547.1600000000001" width="350" height="130.84" as="geometry" />
        </mxCell>
        <mxCell id="PljOsR7fZy3H20qurfGT-4" value="See Ming&#39;s learning report from September" style="rounded=1;whiteSpace=wrap;html=1;fillColor=#f8cecc;strokeColor=#b85450;" parent="1" vertex="1">
          <mxGeometry x="-230.0026923076923" y="622.0009090909091" width="220.91730769230767" height="42.77236363636364" as="geometry" />
        </mxCell>
        <mxCell id="3JirW67J5OosZr8UNJjr-16" value="" style="group" vertex="1" connectable="0" parent="1">
          <mxGeometry x="-280.5" y="550.02" width="350" height="136" as="geometry" />
        </mxCell>
        <mxCell id="3JirW67J5OosZr8UNJjr-2" value="Do you find these useful for Ming&#39;s learning?" style="rounded=0;whiteSpace=wrap;html=1;align=left;strokeColor=none;fillColor=none;" vertex="1" parent="3JirW67J5OosZr8UNJjr-16">
          <mxGeometry width="335.86" height="31.64" as="geometry" />
        </mxCell>
        <mxCell id="3JirW67J5OosZr8UNJjr-11" value="" style="group" vertex="1" connectable="0" parent="3JirW67J5OosZr8UNJjr-16">
          <mxGeometry x="304.42999999999995" y="10.82000000000005" width="12.5" height="10" as="geometry" />
        </mxCell>
        <mxCell id="3JirW67J5OosZr8UNJjr-12" value="" style="whiteSpace=wrap;html=1;aspect=fixed;fontSize=5;align=left;" vertex="1" parent="3JirW67J5OosZr8UNJjr-11">
          <mxGeometry width="10" height="10" as="geometry" />
        </mxCell>
        <mxCell id="3JirW67J5OosZr8UNJjr-13" value="" style="html=1;aspect=fixed;strokeColor=none;shadow=0;align=center;verticalAlign=top;fillColor=#3B8DF1;shape=mxgraph.gcp2.check;fontSize=5;" vertex="1" parent="3JirW67J5OosZr8UNJjr-11">
          <mxGeometry width="12.5" height="10" as="geometry" />
        </mxCell>
        <mxCell id="3JirW67J5OosZr8UNJjr-25" value="" style="group" vertex="1" connectable="0" parent="3JirW67J5OosZr8UNJjr-16">
          <mxGeometry y="20.819999999999993" width="350" height="110" as="geometry" />
        </mxCell>
        <mxCell id="3JirW67J5OosZr8UNJjr-1" value="&lt;span&gt;Will you get Ming to spend 10 minutes on these today?&amp;nbsp;&amp;nbsp;&lt;/span&gt;" style="rounded=0;whiteSpace=wrap;html=1;align=left;strokeColor=none;fillColor=none;" vertex="1" parent="3JirW67J5OosZr8UNJjr-25">
          <mxGeometry width="335.86" height="31.64" as="geometry" />
        </mxCell>
        <mxCell id="3JirW67J5OosZr8UNJjr-10" value="" style="group" vertex="1" connectable="0" parent="3JirW67J5OosZr8UNJjr-25">
          <mxGeometry x="304.42999999999995" y="10.819999999999993" width="12.5" height="10" as="geometry" />
        </mxCell>
        <mxCell id="3JirW67J5OosZr8UNJjr-7" value="" style="whiteSpace=wrap;html=1;aspect=fixed;fontSize=5;align=left;" vertex="1" parent="3JirW67J5OosZr8UNJjr-10">
          <mxGeometry width="10" height="10" as="geometry" />
        </mxCell>
        <mxCell id="3JirW67J5OosZr8UNJjr-9" value="" style="html=1;aspect=fixed;strokeColor=none;shadow=0;align=center;verticalAlign=top;fillColor=#3B8DF1;shape=mxgraph.gcp2.check;fontSize=5;" vertex="1" parent="3JirW67J5OosZr8UNJjr-10">
          <mxGeometry width="12.5" height="10" as="geometry" />
        </mxCell>
      </root>
    </mxGraphModel>
  </diagram>
</mxfile>
